<svg id="Objects" xmlns="http://www.w3.org/2000/svg" viewBox="0 0 411.16 447.96"><defs><style>.cls-1{fill:#36a9e1;}.cls-2{fill:#ee7c3d;}</style></defs><title>logo</title><path class="cls-1" d="M361.63,242c-2.28,5.06-3.9,9.85-7.49,14.22A40,40,0,0,1,349,261.4c-1.53,1.29-3.34,2.23-4.62,3.71-2.48-.1-4.71,1.72-6.4,3.58-3.66,4-7.57,9.27-13.61,9.29-5.53,0-9.88-4.49-13.73-7.89a45,45,0,0,0-11.71-7.81l-.72-.3a1,1,0,0,0-.47-.19,38,38,0,0,0-23.94-1.64c-.54-3.33-3.72-7.28-7.28-6.83-1.05.13-1.69,1.54-.59,2.16,2.23,1.25,4.44,1.82,5.21,4.63a5,5,0,0,1-3.78,6.25c-1.16.26-.93,2.24.28,2.1a7.16,7.16,0,0,0,6.17-6.16c7.78-1.29,15.47-1,22.75,1.95A10.92,10.92,0,0,1,293.1,277c-.85.67.25,2.1,1.16,1.5a12.65,12.65,0,0,0,5.41-12.83l.1.05c7,3.68,11.7,10.79,19,13.95,6.61,2.88,12.77,0,17.56-4.78,1.43-1.42,2.61-3.34,4.14-4.62,1.24-1,4.89-1.44,6.27-.36.94.73,1.47,3.42,1.76,4.48a29.35,29.35,0,0,1-.59,16.53c-.56,1.81,2.21,2.54,2.8.78a31,31,0,0,0,1.26-15.23c-.56-3.33-1.64-8.12-4.66-10.3,3.85-1.76,7.47-6.08,9.7-8.91,3.26-4.15,6.38-9.36,7.07-14.68C364.21,241.36,362.14,240.83,361.63,242Z" transform="translate(-196.26 -168.15)"/><path class="cls-1" d="M386.34,491.59c5.86-2.67,8.23-12.84,9.25-18.42,2.33-12.62,2-25.56,1.55-38.34-.19-5.64-.46-11.31-2.62-16.61-1-2.44-1.47-3.71-.91-6.42.3-1.42,1-2.83,1.43-4.23a59.52,59.52,0,0,0,1.92-8.86c1.57-11.28.18-23.94-5.31-34.06-.36-.66-.75-1.29-1.17-1.91,8.12-5.33,8.92-16.49,4.36-24.49a25.7,25.7,0,0,0-1.63-2.47c11.53-12.58,9-31.81-3.63-42.28a15.68,15.68,0,0,0,9.05-11.72c1.25-7-2.09-13.77-6.51-19a1.53,1.53,0,0,0-.46-.37,26.51,26.51,0,0,0,.46-29,28,28,0,0,0-14.09-11,28.25,28.25,0,0,0,5.77-1.28c11.13-3.8,12.22-15.9,10.63-26-.84-5.33-2.16-11.35-6.1-15.34s-10.37-5-15.77-5.34-12.18,1.27-14.54,6.93a8,8,0,0,0-.56,4C352.06,182,346,179,339.73,178c-7.48-1.17-15.11.43-22.06,3.23s-15.9,7.84-19.59,14.91c-10.12-8.05-24.86.26-23.28,13-18.36-.37-34.34,16-30.89,34.64a29.06,29.06,0,0,0-9.43,2.16c-11.29,5-17.1,19.69-12,30.94a.41.41,0,0,0,.05.09c-17.18,8.24-22,31.55-9.43,46.24-4.43,2.42-7.52,7.3-9.16,12.34-1.38,4.21-2.61,9.23-1.69,13.67.4,1.92,1.35,6.38,3.41,7.72a23.11,23.11,0,0,0-9.08,15.51c-1.41,10,2,20.84,12,24.3-2.55,3.16-3.43,6.84-4,10.85-.67,4.52-1.32,9.16-.7,13.73a17.65,17.65,0,0,0,13.7,15.22c.4.1.79.17,1.18.25-7,9.71-3.51,22.61,7.18,27.86-3.86,10-5.8,24.6.84,33.72,3,4.17,9,6,13.34,4.18-1.09,4.84-1.13,10,1.85,14.06a11.21,11.21,0,0,0,4.53,3.62,14,14,0,0,0,12.11,17.16c-2.75,10.79,2.7,24.28,11.78,30.48a16,16,0,0,0,21.85-3.39c1.15,9,6.16,17.46,14.46,21.54a24.13,24.13,0,0,0,25.59-2.87A25.86,25.86,0,0,0,341,600.4c4.3,3.68,10.46,5.31,15.09,1.89,1.48,5.49,6.84,9.39,11.9,11.57,7,3,15.37,3.37,21.74-1.29,13.81-10.09,10.48-32.06,2.17-44.55a1.61,1.61,0,0,0-.55-.5c5.58-8,7.44-18.15,8-27.77.72-12.42.22-26.43-4.27-38.18C393.12,496.54,390.1,493.4,386.34,491.59Zm10,49.43c-.68,9.47-2.8,19.63-9.1,27.07-6.73,7.93-17,11-26.63,13.9-1.52.45-1.32,3.06.4,2.9A11,11,0,0,1,372.88,593a1.48,1.48,0,0,0,2.85-.79,14.11,14.11,0,0,0-8.2-9.27c8.26-2.72,16.3-6.3,22-13.08,6.89,10.61,10.45,28.49.65,38.45-9.26,9.42-27.75,4.21-32.47-7.63.54-1.32-1.23-2.84-2.41-1.62-4.74,4.92-11.39.79-14.92-3.44a23.67,23.67,0,0,1-5.29-15.72,1.5,1.5,0,0,0-2.53-1A21.05,21.05,0,0,1,307.14,583c-8.49-4.62-12.66-14.52-12.21-23.86.08-1.72-2.39-1.91-2.89-.39-3.36,10.17-15.39,11.66-22.6,4.64-6.79-6.6-10.58-17.71-7.6-26.85a1.45,1.45,0,0,0-1.39-1.82,12.1,12.1,0,0,1-12.18-13.78,16.41,16.41,0,0,0,12.29-2,30.19,30.19,0,0,0,6.75-5.53c-2.4,9.2-.37,18.38,7.55,24.62a1.05,1.05,0,0,0,1.49-1.49c-3.52-4-6.57-7.37-7-12.94a29.79,29.79,0,0,1,1.83-12.72c3.51-9.19,11.27-12.8,19.93-15.8,1.33-.46,1.24-2.86-.36-2.65a28.47,28.47,0,0,0-15.29,7.26,55,55,0,0,0,2.89-25.94,1.28,1.28,0,0,0-1.49-1,1,1,0,0,1,0-.17,37.26,37.26,0,0,0,24.8-10.65c2.59,14.85,22.18,15.66,30.68,25.67,4.84,5.7,7.7,12.38,14.2,16.55,5.94,3.82,13.53,6.09,20.47,7.08a1.53,1.53,0,0,0,.75-.08c-2.22,3.5-2.06,8.28-1.25,12.16.27,1.29,2.21,1,2.24-.3.06-3.25-.42-6.87,1.22-9.84,2.11-3.82,6.67-3.7,10.45-3.37,1.65.14,2-2.57.39-2.91l-1.13-.23a1.2,1.2,0,0,0-.72.09c-3.73-.17-7.65.31-10.24,3.13a1.24,1.24,0,0,0-1-1.31c-6.74-2.06-13.65-3-19.71-7S339.31,491.3,334.87,486c-8.7-10.45-27.91-10.71-31.32-25.55a.83.83,0,0,0-.13-.3c7.16-7.63,11.86-17.79,15-27.75a8.67,8.67,0,0,0,2.8.85c3.58.45,8.32-1.47,9.41-5.16a1.24,1.24,0,0,0-2.05-1.19c-2.31,2-4.12,4.12-7.58,3.46a8,8,0,0,1-5.6-4.83c-.51-1.09-2.13-.3-1.87.79a9.13,9.13,0,0,0,2.45,4.34,1.48,1.48,0,0,0-.24.47c-4.68,15.23-13.18,31.35-29.3,36.74-8.47,2.84-17.66,1.93-26.21-.07-8.12-1.9-16.38-4.58-22.13-10.94-.78-.86-2,.39-1.26,1.26,5.52,6.78,13.62,10.17,21.9,12.3a64.93,64.93,0,0,0,15.9,2.2c0,.15.09.29.14.44a5.11,5.11,0,0,1,.17,1.74.83.83,0,0,0,.72.85c1.26,13-2.37,26.57-11.32,36.32-4.63,5-13.9,10.11-19.62,3.45-4.19-4.87-2-12.52,0-17.84.65-1.79-2.19-2.55-2.85-.78-1.35,3.68-6.23,4.51-9.45,2.86-3.58-1.84-5.27-6.08-6.07-9.78-1.86-8.52-.39-17.49,2.75-25.51a1.44,1.44,0,0,0-1-1.74c-10.47-4-13.56-16.57-7.15-25.46A22.2,22.2,0,0,0,237.49,432c5.61-1.11,10.35-1.62,15.9.33,1.54.55,2.22-1.42,1.43-2.45-5.18-6.68-3.79-14.17.86-20.53a.76.76,0,0,0,.15-.37c7.44-2.88,10.65-11.93,11.55-20a6.2,6.2,0,0,0,2.27,0,12.28,12.28,0,0,0,.44,12c2.71,4.54,7.71,6.76,12.76,7.48-3.09,4.47-4.79,10-2.57,15.3,1.54,3.63,7.54,9.72,12,7a1.54,1.54,0,0,0,.68-1.67c0-.1,0-.21-.05-.31a1.29,1.29,0,0,0-1.55-.89l-.17,0a1.06,1.06,0,0,0-.51.31c-3.14,1.51-7.39-4.48-8-6.74-1.39-4.79,1-9.66,4-13.24a1.47,1.47,0,0,0-1-2.47c-4.4-.14-8.85-1.39-11.95-4.69a10.28,10.28,0,0,1-.76-13.28c4.81-2.26,10.09-7,12.44-8.55a26.74,26.74,0,0,1,17.14-4.55c5.37.29,10.68.88,15.88-.87.43-.14.86-.3,1.28-.48,3,3.34,6.32,5.77,8.51,9.87a27.85,27.85,0,0,1,3.25,13.56,1.5,1.5,0,0,0,1.48,1.48c6.42.48,11.17,6.39,9.38,12.78-1.86,6.64-9.12,8.95-15.06,6.32a.89.89,0,0,0-.89,1.53,12.55,12.55,0,0,0,18.68-7.1,12.36,12.36,0,0,0-2.38-11.53.72.72,0,0,0,.26-.6c-.21-4.61,1.89-10.93,7.88-9.86,2.72.49,5.25,2.45,7.86,3.37,4.78,1.68,10.24,2,14.89-.26,3.85-1.87,7.06-5.41,7.7-9.74.8-5.41-3.59-8.4-7.25-11.6-1.39-1.23-3.42.75-2.05,2.05,2.72,2.56,6.63,5.18,6.35,9.49-.2,3-3.27,5.69-5.71,7-6.25,3.33-12.5.42-18.36-2.08-7.82-3.34-14.37,2.79-13.19,10.62a14.14,14.14,0,0,0-6.65-3.15c-.32-8.4-4.31-19.17-12-23.43,13.39-7.38,22.51-27.49,13.25-40.65a14.93,14.93,0,0,0,7-1.45c7.85-3.79,14-14.18,12.49-23a9,9,0,0,0,10.53-11.26c-.48-1.81-3.09-1-2.76.76,1,5.61-4,9.72-9.19,6.9-1-.56-2.66.39-2.17,1.67,2.94,7.71-2.33,17.86-9.22,21.88-6.56,3.83-15,1.13-18.92-5.12a1,1,0,0,0-1.72,1,16.33,16.33,0,0,0,10.5,8.18,1.22,1.22,0,0,0,0,.27,10,10,0,0,1-7.46,11.12,1.48,1.48,0,0,0,.78,2.86,13,13,0,0,0,9.34-9.31c3.06,7,1,15.7-2.57,22.12-4.18,7.47-11.44,13.52-20.24,14.09-8.1.53-15.65-1.69-23.36,1.91-2.44,1.15-19.48,14.12-21.19,11.76a1.5,1.5,0,0,0-2.76.75c-.52,8.78-3.78,20.87-14.85,20.35a1.49,1.49,0,0,0-1.42,1.08c-3.35,13.26-12.67,28.54-28.52,26.1-7.7-1.19-12.77-6.74-13.43-14.5-.58-6.79.05-16.37,4.25-22a1.11,1.11,0,0,0,.13-.27c12.62,2.82,26-4.56,33.6-14.29,1.11-1.43-.89-3.45-2-2-7.45,9.58-22.22,18.09-34.47,12.49-6.95-3.18-9.2-11-8.79-18.12.45-7.76,4-14.11,10.73-18.15,12.41-7.46,26.68-8.8,40.07-13.42,5.41-1.86,10.93-5.24,14.26-9.9,3.74,13.39,25.16,18.35,34.27,7.93,1.87,8.5,11,13.28,19.58,9.58,1.71-.74.23-3.23-1.47-2.51-8,3.41-16.09-2.62-15.66-11.15a1.39,1.39,0,0,0-2.58-.7c-4.25,8.83-15.15,9.07-23.06,5.33-5.55-2.62-8.73-7.33-8.8-12.81a15.48,15.48,0,0,0,.86-5.26c.06-.17.1-.34.16-.51,5.17-14.19,23.07-17.62,35.07-24.28a9.77,9.77,0,0,0,.89,2.15c1.9,3.38,6.29,5.95,10.13,4.45,1.28-.5,1.28-2.82-.35-2.64-8.73,1-9.52-8.15-6.77-14.31a.94.94,0,0,0-1.63-.95,15.13,15.13,0,0,0-2.65,9.3c-4.81,1.58-9.41,3.8-14,5.85a74,74,0,0,0-13.53,7.2,29.18,29.18,0,0,0-8.07,8.71c-3.26-11-15.44-15.79-26-18.27,3-2.44,6.21-8.43,3.77-12.1a1.06,1.06,0,0,0-1.92.25c-.38,1.43-.07,2.84-.36,4.29a9.82,9.82,0,0,1-2.75,5.13c-3.16,3-7.64,3.23-11.51,1.65-1-.4-1.55,1.15-.7,1.65a12,12,0,0,0,11.11.61c6.86,2.15,14.36,4.16,19.82,9.05,3.81,3.4,6.32,8.06,6.36,12.82a19.24,19.24,0,0,0-.71,4.43,13.8,13.8,0,0,1-1.63,3.29c-4.31,6.43-12,9-19.19,10.71a187.87,187.87,0,0,0-21.09,5.9,67,67,0,0,0-13.91,6.61,1.13,1.13,0,0,0-.92-.7c-1.57-1.75-2.25-6.92-2.23-8.76a33.16,33.16,0,0,1,1.92-9.63c2.19-6.68,6.93-12.45,14.38-13,.82-.06,1.14-1.41.21-1.54a13.07,13.07,0,0,0-5.63.41,1.06,1.06,0,0,0-.18-.27c-13-15.41-5.92-39.68,14-44.38a28.31,28.31,0,0,1,13.57.09c3.51.91,7.39,4.42,11.09,4,1.39-.16,2.36-1,3.54-1.63a13.86,13.86,0,0,1,6.81-1.93c5-.05,9.16,2.31,12.4,6,.61.7,1.62-.19,1.23-.95a14.65,14.65,0,0,0-9.63-7.21c-4.58-1.12-8,0-12.17,1.75-4.67,1.93-11.08-2.7-16.16-3.39A31.63,31.63,0,0,0,224.9,276l-.17.07s0,0,0-.07A22.26,22.26,0,0,1,227.38,255c5.87-8.25,15.29-8.88,24.64-8.92,7.23,0,14.61-.51,21.11-4,4.7-2.52,10.8-8,8.84-13.94-.15-.46-.91-.41-.88.12.3,5-4.67,9.28-8.67,11.46a33.7,33.7,0,0,1-13.05,3.61c-4.46.41-9,.13-13.54.33-1.08-17.84,12.1-33.12,30.74-31.5a1.48,1.48,0,0,0,1.42-1.86A11.46,11.46,0,0,1,296.91,199a14,14,0,0,0,.45,8.93.64.64,0,0,0,1.23-.34,16.08,16.08,0,0,1,.63-8.27,1.47,1.47,0,0,0,.53-1.32c3.76-8.24,14.19-13.28,22.63-15.9,6.11-1.9,12.62-2.69,18.91-1.21,6.08,1.44,11.19,4.79,16.61,7.71a1.28,1.28,0,0,0,.71.16,6.82,6.82,0,0,0,4.58,3.13.78.78,0,0,0,.42-1.51c-6.2-2-4.54-9.37,0-12.07,4.33-2.58,9.9-1.77,14.58-.8,8.49,1.75,11.78,7.38,13.36,15.41,1.21,6.21,2.09,13.6-.92,19.43-3.59,6.94-11.79,7.92-18.8,7.42-7.22-.51-14.19-3-18.15-9.39-2.77-4.47-4.47-9.51-9.63-11.76-10.84-4.71-20.84,4.67-23.44,14.62a1,1,0,0,0,1.91.52c2.6-7,7.77-14,16.07-13.79,8.73.24,10.06,8.34,14.48,14a20.68,20.68,0,0,0,7.88,6,14.21,14.21,0,0,0-8.81,4.4c-5.14-2.65-11.19-4-16.74-1.75a13.28,13.28,0,0,0-8.75,12.11c0,.82,1.33,1,1.45.2,1.76-11.83,15.29-12.46,23.68-7.6a1.44,1.44,0,0,0,1.9-.5c4.46-6,13.42-4.61,19.67-2.94,7,1.89,13.26,5.61,16.94,12.09,7.28,12.84,1.05,28.53-12.39,33.91-1.71.69-1,3.47.77,2.81a26.57,26.57,0,0,0,11.27-7.93l.1.14c3.59,4.25,6.4,9.66,5.83,15.39A12.53,12.53,0,0,1,386,291.52c-1.34.26-1.32,2.05-.35,2.7,13.66,9.21,15.45,26.95,6.17,39.82a33.93,33.93,0,0,0-8.13-6.74c-1.47-.88-17.17-8.07-17.59-6.87a1.14,1.14,0,0,0-1.9-1.1c-2.22,2.57,1.36,3.89,3.36,4.5,5.88,1.79,11.8,3.88,16.86,7.46,9.61,6.8,15.15,21,4.69,29.63-6.11-7.37-16.57-11.31-25.92-13a1.38,1.38,0,0,0-1.49-.95c-.78.12-1.56.28-2.34.46a1.44,1.44,0,0,0,0,2.76c6.79,1.43,13.43,3.17,19.61,6.43s10,8,12.34,14.59A57.33,57.33,0,0,1,393,403.93c-.72,2.93-2.12,5.76-2.61,8.72-.36,2.13.29,3.85,1.06,5.8A37.9,37.9,0,0,1,394,430.37c.44,6.8.53,13.67.48,20.48a125.27,125.27,0,0,1-1.73,21.54c-1,5.75-2.94,17.51-10.33,17.83a33.79,33.79,0,0,0-11.27-.42c-1.15.12-1.21,1.83,0,1.83,5.16,0,11-.08,15.43,2.88s6.07,8.39,7.25,13.27A109.22,109.22,0,0,1,396.29,541ZM250.58,428.47a24.58,24.58,0,0,0-9-.4,47.71,47.71,0,0,0,9.37-18.16,16.61,16.61,0,0,0,1.9-.15C248.05,414.78,247.65,422.37,250.58,428.47Z" transform="translate(-196.26 -168.15)"/><path class="cls-1" d="M372.92,412.63c-6.18-1.92-14.32.82-16.39,7.43-1.7,5.41-.74,13.1,2.31,18.23-5.12,1.15-10,3-12.27,8-5.24-.55-10.86,6.93-10.36,11.61a.82.82,0,0,0,1.64,0c.12-2.65,1.54-4.63,3.44-6.34,2.44-2.2,6.67-3.85,7.83.64a22.54,22.54,0,0,1,.36,6.14c-.05,1.39.13,3.88-.38,5.41a.84.84,0,0,0-.18.15l-.16.18a1.23,1.23,0,0,0,0,1.69l.2.25a1.3,1.3,0,0,0,1.54.2c2.34-1.22,1.79-7,1.79-9.12,0-3.42-.14-7.82-3.33-9.94a5.16,5.16,0,0,0-.64-.36c3-4.35,8.33-5.39,13.32-6.16,1.18-.19,1.24-1.68.63-2.41-3.27-4-3.61-9.87-3.27-14.84.5-7.38,7.45-8.8,13.56-8.15C374.11,415.41,374.3,413.05,372.92,412.63Z" transform="translate(-196.26 -168.15)"/><path class="cls-1" d="M382.86,421.75c-1.06-.85-2.8.21-2,1.55,1.16,1.94,2,3.46,1.39,5.75-.82,3-3.44,4.39-6.49,3.87-1.34-.22-2.56,1.35-1.42,2.43,7.87,7.52,5.81,19.17-3.3,24.55-1,.61-.12,2.05.92,1.58,10.22-4.63,12.55-17.15,6.55-25.69a8.15,8.15,0,0,0,6-4C386.3,428.63,385.74,424.06,382.86,421.75Z" transform="translate(-196.26 -168.15)"/><path class="cls-1" d="M349.49,532.5c-8.59-1.52-4-14.92-6.44-20.75a15.45,15.45,0,0,0-12.83-9.28c-1.89-.21-1.87,2.75,0,3a12.5,12.5,0,0,1,9.72,6.6c2.11,4,.91,8.7,1.22,13a13,13,0,0,0,3,7.74c-8.63.48-19.72,1.23-20.8,11.33-.88,8.19,5.57,12.31,12.52,14.39A17.63,17.63,0,0,0,329,563.3c-1.52,1.75-4.27,7.08,0,7.3.77,0,.9-1,.36-1.34-2.62-1.85,4.4-6.67,5.81-7.4a16.7,16.7,0,0,1,9.41-1.64c1.87.18,1.83-2.7,0-2.91-6.94-.81-20.87-3.75-18.11-13.94,2.46-9.06,15.7-7.22,22.64-8C350.6,535.24,351.27,532.82,349.49,532.5Z" transform="translate(-196.26 -168.15)"/><path class="cls-2" d="M512.69,235.14c-3.44-1.83-8.74-1.94-12.54-1.49-2.09.25-5.42.94-7.26,2.66-1.71-9.77-7.66-18.61-15.36-24.74a38.52,38.52,0,0,0-12.74-6.95c-2.33-.7-9.07-2.3-9.7,1.47a1.27,1.27,0,0,0,1.21,1.58h.27a1,1,0,0,0,1-1c0-1.67,12,3.12,13.12,3.75a42.34,42.34,0,0,1,9.33,7.3c5.48,5.68,8.91,12.59,11.24,20.06a.89.89,0,0,0,.4.54c-.73,2.94,1.63,6.78,3.28,8.91a15.21,15.21,0,0,0,9.57,5.91c.84.11,1.59-1.08.64-1.53a21.22,21.22,0,0,1-6.94-4.57c-1.76-1.92-4.39-5.36-3.3-8s6.26-2.75,8.81-2.68c2.8.09,5.65,1.09,8.42.79C513.13,237.1,513.76,235.7,512.69,235.14Z" transform="translate(-196.26 -168.15)"/><path class="cls-2" d="M478.08,346.53c-.26-2.43-2.28-3.67-4.43-2.49a1.36,1.36,0,0,0,1,2.47c.9-.29-1.54,5.72-1.75,6.05a18.73,18.73,0,0,1-4.89,5.11,18.37,18.37,0,0,1-12,3.32,1.49,1.49,0,0,0-1.27,2.23c4,6.88.22,15.36-7.84,16.35a1.49,1.49,0,0,0-.4,2.9c7.37,2.4,10.18,11.15,8.36,18.17-2.08,8-9.05,13.72-15.6,18.13a1.48,1.48,0,0,0-.3,2.3,20.84,20.84,0,0,1,5.84,25.11,1,1,0,0,0,0,.81,7.71,7.71,0,0,0-3.26,2.44c-1.33,1.72-2.42,4.72-.86,6.59a1,1,0,0,0,1.34,0,.7.7,0,0,0,.28-.69,5.31,5.31,0,0,1,7.46-5.63c2.05,1,2.93,3.07,3.17,5.22a24.4,24.4,0,0,1,.17,3.77,1.11,1.11,0,0,0-.28,1.1,1.72,1.72,0,0,1,.07.21,1.3,1.3,0,0,0,1.86.76c2.24-1.06,1.21-6,.75-7.85a8.28,8.28,0,0,0-6.07-6.26,7.94,7.94,0,0,0-2.42-.18c4.71-8.62,2.46-19.68-4.59-26.3,7.41-5.17,14.77-12.14,15.84-21.52.77-6.63-1.81-13.57-7.24-17.22A13.47,13.47,0,0,0,458.42,364a21.43,21.43,0,0,0,16.1-8.54C476.24,353.15,478.4,349.52,478.08,346.53Z" transform="translate(-196.26 -168.15)"/><path class="cls-2" d="M522.28,350.84a39.11,39.11,0,0,0,20.3,7.41c2.37.17,14.38.81,11.65-4.62-.84-1.67-3.22-.2-2.48,1.45-.15-.33-7.07.32-7.89.29a36,36,0,0,1-23.68-10.17,36,36,0,0,1-9.66-32.12c.24-1.28-1.47-2.71-2.48-1.44-2.78,3.51-7.79,3.21-11,.38-2.62-2.31-4-5.7-5-9a46.63,46.63,0,0,1-.71-24.25,1.48,1.48,0,0,0-2.45-1.43c-6.84,5.63-16.07,9.71-25.06,7.53-8.05-2-14.54-9.22-14.47-17.63,0-1.1-1.56-1-1.68,0-1,9.17,5.75,17.34,14.29,20,9,2.84,18.27-.28,25.75-5.43-1.51,9.28-.65,20.05,4,28.09a13.82,13.82,0,0,0,1.41,2c-6-.56-12.34,2.5-16.94,6.33s-8.25,8.55-12.78,12.39c-5.44,4.62-12.33,6.87-18.7,9.89a.79.79,0,0,0-.33,1.12c-3.46-1.57-8.16-.21-8.2,4.36a.88.88,0,0,0,1.73.23c1.08-3.78,5.67-3.51,7.16-.19a5.91,5.91,0,0,1,.2,4.18,9.8,9.8,0,0,1-2,3.62.9.9,0,0,0-.37.05l-.15.06a1.42,1.42,0,0,0-1,1.34v.16a1.44,1.44,0,0,0,1,1.36c2.47.45,4.28-3.19,5-5.08a8.58,8.58,0,0,0-1-8.16,5.77,5.77,0,0,0-1.53-1.43h.1a88.75,88.75,0,0,0,13.84-5.3c4.32-2.24,7.9-5.54,11.29-9,6.53-6.65,15.72-16.81,26.12-11.84,11.64,5.57,1.88,22.7-1.7,30.68-4.19,9.33-9.23,18.26-16.65,25.43a1.49,1.49,0,0,0,.3,2.32c8.14,4.37,13.5,13.25,12.78,22.6-.74,9.61-7.85,17.77-16.93,20.55a1.48,1.48,0,0,0,.39,2.9c10.08,1.12,15.89,11.36,17.34,20.51a42,42,0,0,1-6.06,28.52c-5.19,8.28-13.4,12.7-20.55,18.95-3.88,3.4-12,12-5.91,16.94,1.39,1.14,3.4-.78,2-2-6.85-6.07,15.59-19.93,19.2-23.14a42.23,42.23,0,0,0,5.52-6,.83.83,0,0,0,.12-.08,44.93,44.93,0,0,1,20.23-11.52c7.86-2.18,16.06-1.91,24-3.76,6-1.4,11.93-4.56,14.81-10.28,3.34-6.62,3.75-15.16,2.61-22.35-.25-1.58-3-1.22-2.81.38.73,8.05,1,18.8-5.56,24.72-5.89,5.31-14.39,5.47-21.81,6.32-9.73,1.1-19.79,3.9-27.44,10.08a45.39,45.39,0,0,0,4-10.81c3.08-13.49-.58-33.23-14.81-38.35a26.7,26.7,0,0,0,14.57-20.41c1.2-10.09-4-20-12.48-25.37,7.83-8.09,13-18.11,17.4-28.41,3.31-7.75,9.51-19.55,3.54-27.32a8.51,8.51,0,0,0,4.43-.93A38.63,38.63,0,0,0,522.28,350.84Z" transform="translate(-196.26 -168.15)"/><path class="cls-2" d="M550.16,366.33c-3.77,2.45-6.62,4.59-11.39,4.56-3.49,0-14.35-1.89-15.33-6.14a1,1,0,0,0-2,.27c-.1,3.28,3.58,5.49,7.51,6.87a11.47,11.47,0,0,0-1.77,1c-5.64,3.87-9.09,12.09-5.76,18.27a25.85,25.85,0,0,0-12.8,19.62c-.28,3,1.82,21,7.79,17.32a.88.88,0,0,0-.89-1.51c-1.68.82-4-9.42-4.09-10.69a23.1,23.1,0,0,1,.9-9.09,23.42,23.42,0,0,1,11.91-13.83,1.51,1.51,0,0,0,.3-2.33c-3.59-4.54-.41-11.46,3.5-14.71a9.29,9.29,0,0,1,7.22-2.23c3.25.46,4.63,2.39,6.3,4.89.61.91,2.37.68,2.25-.6a7.14,7.14,0,0,0-1.91-4.36c4-.54,8.07-2.23,9.9-5.64C552.33,367,551.21,365.66,550.16,366.33Z" transform="translate(-196.26 -168.15)"/><path class="cls-2" d="M526.68,493.56c-6.39-3.56-5.71-9.36-1.76-14.72,1-1.34-1.25-3.08-2.32-1.79-11.27,13.51-24.61,24.69-37.19,36.88-5-3.2-13.29,0-15.71,5.31-.48,1.06,1,2,1.59.93a10.1,10.1,0,0,1,8.78-4.83c5.24,0,6.52,4.37,6.69,8.83a25.83,25.83,0,0,1-4.45,15.24,1.18,1.18,0,0,0-1.74,1,2.46,2.46,0,0,0,.93,2.32,1.44,1.44,0,0,0,2,0c5.16-6.53,8.84-18,4.47-26a8.51,8.51,0,0,0-1-1.4,260.45,260.45,0,0,0,32-29.74c-.53,4.54,1.11,8.93,6.56,10.45A1.36,1.36,0,0,0,526.68,493.56Z" transform="translate(-196.26 -168.15)"/><path class="cls-2" d="M567.25,457.13c-1.81-3.57-5.73-4.86-8.56-7.43a1.23,1.23,0,0,0-1.92,1.48c1.08,2.46,3.44,3.17,5.5,4.66,4.09,3,3.92,8.54,1.29,12.39-4,5.94-12.71,5.79-16.27,11.89-3.11,5.32-.69,11.77-1.28,17.52-1,9.84-10.32,15.23-19.55,13a1,1,0,0,0-.54,2,17.32,17.32,0,0,0,19.74-6.23A18.16,18.16,0,0,0,549,496c.1-4.44-1.47-9.77.58-13.94s7.9-5,11.53-7.49a16.81,16.81,0,0,0,6.6-8A12.2,12.2,0,0,0,567.25,457.13Z" transform="translate(-196.26 -168.15)"/><path class="cls-2" d="M606.69,374.4c-1.82-8.65-4.72-19.29-13.65-22.62,5.6-6.6,4.08-17,1.1-24.55a23.87,23.87,0,0,0-7.73-10.51c5.06-10.17,7.8-22.07,3.74-33.07a28.88,28.88,0,0,0-8.14-12,26,26,0,0,0-5.78-3.71c-2.6-1.23-6-2.2-7.56-4.78s-1-6.22-1-9.19a34.42,34.42,0,0,0-.86-7.64,39.61,39.61,0,0,0-6.59-14.06,61.76,61.76,0,0,0-25.38-20.06c-6.87-3-14.41-4.73-21.74-4.16a1.14,1.14,0,0,0-.25-.24c-.48-.32-.94-.67-1.39-1a1.23,1.23,0,0,0-.13-.83c-4.22-7.78-12.25-14-20.12-17.72-5.4-2.57-12.62-5.06-19.24-5a1.23,1.23,0,0,0,0-1c-3.14-6.44-12.33-10.23-19-11.09a29.48,29.48,0,0,0-20.16,5c-2.81-8.55-12.55-10.44-19.83-4.64-7.77,6.19-8.38,17.87-2.52,25.48a15.11,15.11,0,0,0-2,1.24c-6.53,4.8-6.77,13.57-2.69,19.88a8.16,8.16,0,0,0-3.39.81c-3.69,1.82-4.51,6.28-3.09,9.86,1.65,4.13,5.68,5.9,9.79,6.69-6.76,7.87-5.47,20.33-1.71,29.38a55.56,55.56,0,0,0,8.06,13.34c-8,.68-11.66,11.44-12.35,18.35-.87,8.77,3.07,18.13,11.34,21.34-5,3.86-7,10.31-7.42,16.66-.3,4.82-.67,14.23,5.76,15.18-9,14.31-6.54,33.66,4.17,46.67-14.72,10.38-15.36,32.92-.71,43.27-8.92,1.76-10.92,16.37-7.32,23.78a15.08,15.08,0,0,0-2.87,1.79c-9.86,7.75-8.29,22.82-4.64,33.35a49.35,49.35,0,0,0,9.32,16.21c-7.93,12.36-4.45,31.88,3.82,43.19a1,1,0,0,0-1.17.65c-6.36,15.76-3.22,38.33,9.67,50.17,5.53,5.08,13.19,7,20.08,3.4a17.79,17.79,0,0,0,9.31-15.32c3.37,6,10.62,9.65,17.59,7.7s11.15-8.74,11.18-15.59c10.24,7.23,27.63-2,36-8.31,10.65-8,22-22.32,16.59-35.45a12.92,12.92,0,0,0,3.62.31c5.18-.44,9.89-3.92,12.65-8.17,8-12.24,2-32.47,17.14-40,6.79-3.41,11.6-7.26,15.48-13.94a35.72,35.72,0,0,0,5.15-19c-.35-9.32-5.45-16.11-11.63-22.15,8.47.13,17.56-5,19.94-13.44a16.22,16.22,0,0,0-6-17.38c6.37-2.85,9.72-10.12,8.76-17.16a23,23,0,0,0-.51-2.44,8.93,8.93,0,0,0,6.81-3.79C608.15,384.07,607.64,379,606.69,374.4Zm-9.29,14.45a34,34,0,0,0-16.23-16.92,24.29,24.29,0,0,0-8.09-16.49,18.79,18.79,0,0,0-2.29-25.95c-8.25-7.35-19.93-6.88-28.93-1.45-1.13-11.55-15.15-17.89-15.39-29.82a1.48,1.48,0,0,0-.24-.79,7,7,0,0,0,4.1-2.69c1.82-2.44,3.66-6.72,2.63-9.67-.35-1-2-1.21-2.26,0-.65,3.08-1.31,8.47-5,9.57s-9.51-2.58-7.9-6.61c.31-.77-.83-1.34-1.36-.79-4.29,4.47,2.7,9.79,6.93,10.32l.26,0a1.41,1.41,0,0,0-.13.64c0,13,16.42,19.65,15.39,32.56a1.49,1.49,0,0,0,2.23,1.27c7.6-5.57,17.88-7.37,26-1.69s9.81,17,2.8,24.19a1.48,1.48,0,0,0,0,2.07c11.29,8.87,10.81,24.11.88,33.75-.7.68.23,2,1.07,1.39a21.91,21.91,0,0,0,9.25-16.35c5.47,4.67,11.37,8.21,13.94,15.63,2.64,7.65-.34,17-9.05,18.55-1.57.28-1.2,2.37,0,2.83,6.38,2.44,9.22,10.31,7,16.57-2.7,7.58-10.74,10.76-18.15,11.13a1,1,0,0,0-.67.28c-2.7-2.51-5.53-4.9-8.21-7.33a89.78,89.78,0,0,1-16.65-21c-3-5-6.82-10.52-13.28-10.53a1.49,1.49,0,0,0-.62.13,9.34,9.34,0,0,0-5.57-4.55,1.26,1.26,0,0,0-1.22,2.08c2.29,2.11,4.5,3.64,5.37,6.83a11.15,11.15,0,0,1-1.78,9.14c-.67,1,.91,2.27,1.7,1.32a14.2,14.2,0,0,0,2.55-12.16c5.76.74,8.76,6.61,11.44,11.16A83.19,83.19,0,0,0,558.63,430c7.55,8.13,18.12,14.18,23.42,24.2,6.24,11.78,1.14,27.49-8.47,36-4.3,3.81-10.22,4.79-14.07,9.22-3,3.48-4.74,7.95-5.81,12.38-1.61,6.67-1.69,13.75-4.21,20.2a17.93,17.93,0,0,1-6.66,8.66,14.32,14.32,0,0,1-4.77,2.08,20,20,0,0,1-5.7-.18c-.32-.54-.68-1.07-1.07-1.6a1.21,1.21,0,0,0-.83-1.07l-.11-.15c-1.22-1.46-3.19.61-2.06,2.06,10.5,13.52-2.56,29.1-13.7,37.12-7.66,5.53-26.39,15.87-34.19,5.41-.94-1.26-3.18-.59-2.69,1.13,1.86,6.61-1.74,14.35-8.54,16.39s-14.32-2.54-16.6-9a.88.88,0,0,0-.57-.56c-.42-1.43-3-1.06-2.81.52,1.06,7.9-2.5,16.11-10.84,18.07-7.7,1.81-14.16-3.78-18-9.82-8.07-12.58-8.69-27.72-5.12-41.84l0-.18A33.34,33.34,0,0,0,433,570.62c5.87,1.52,13.56,1.74,19.24-1.2a7.88,7.88,0,0,0,3.35,5.6c6,4.55,15.18,2.17,21.33-.68,8.51-3.93,14.68-10.89,18.44-19.38,3.45-7.83,7.14-28.52,19.49-24.71,1.79.55,2.39-2.06.75-2.74-6.36-2.64-12.2,2.12-15.21,7.42-4.35,7.66-5.84,16.61-10.48,24.14a33.23,33.23,0,0,1-20.69,14.83c-3.58.8-8.11,1.25-11.37-.86-6.45-4.16-.27-11.15,2.87-15.11a1,1,0,0,0-1.43-1.44c-2.89,2.26-5.78,5.88-6.75,9.57-6.58,2.21-12.3,3.54-19.34,1.57a30.59,30.59,0,0,1-16.67-11.77c-7.8-11-9.58-26.86-4.23-39.26a43.1,43.1,0,0,0,13.17,9.3,41.9,41.9,0,0,0,18.21,3.79c3.57-.08,11.67-.16,11.31-5.4-.1-1.36-2.31-1.89-2.55-.35-.67,4.16-12.21,2.83-15.18,2.39a40.25,40.25,0,0,1-14.45-5.12,43.78,43.78,0,0,1-18.46-22.83c-3.17-8.65-5.17-20.79,1.08-28.54a12.16,12.16,0,0,1,15.27-3.44c4.34,2.09,6.89,5.74,9.91,9.15-4.23,4.48,1.75,11.73,6.55,12.68a.92.92,0,0,0,.7-1.67c-2.35-1.67-7.8-5.86-5.25-8.95a1,1,0,0,0,1.35-1.09,7.52,7.52,0,0,1,5-.84c1.93.31,3,1.4,4.67,2.28a1.27,1.27,0,0,0,1.72-1.72c-2.22-4.17-8.55-4.38-12.59-2.24-4.45-7.61-13.55-13.81-21.93-11.34a20,20,0,0,1-.76-11.11c1-4.32,4.15-9.76,9.3-9.08a1.17,1.17,0,0,0,1.16-.55,1.43,1.43,0,0,0,.64-2.65c-16-9-17.51-31.42-1.35-41.32a1.49,1.49,0,0,0,.3-2.31c-13.2-14.68-12.33-34.33-1.8-50.12.61-.91-.76-1.95-1.5-1.16a35.17,35.17,0,0,0-2.68,3.22,1.16,1.16,0,0,0-.36-.25c-5.19-2.27-4.25-10.09-3.7-14.75.7-5.85,3.12-11.35,8.7-14a1.49,1.49,0,0,0-.35-2.7c-8.4-1.42-12.84-9.28-12.64-17.33.17-6.59,3.1-18,11.22-18.45a135.42,135.42,0,0,0,15.87,15.19,1.5,1.5,0,0,0,1.82.1,6.05,6.05,0,0,0-1.18,1.1c-1.54,1.91-2.52,5.78-1.69,8.17.54,1.58,2.35,1.95,3,.28a.67.67,0,0,0-1-.75c.77-.57.54-2.92.85-3.88.65-2.07,2.12-3.65,4.43-2.87,2.89,1,4.05,3.7,6,5.69a1.24,1.24,0,0,0,2.06-1.2c-1-4.86-8-9.59-12.4-6.63a1.28,1.28,0,0,0,.11-2c-8.3-7.56-17-14.85-22.58-24.81-5.33-9.55-8.82-24.94.88-33,1.08-.9.09-2.41-1.05-2.52-4.08-.38-9.52-1.57-10.53-6.3-1.65-7.7,7.8-5.28,11.6-3.41,6.88,3.36,12.28,9,17.46,14.5a1.5,1.5,0,0,0,2.53-1c-.15-8.38,7.72-14.86,15.84-14.65,8.83.23,14.31,6.36,19.88,12.29.56.59,1.77,0,1.44-.83-3.59-8.77-14.16-15.29-23.62-14.29-7.75.82-14.67,6.57-16.19,14.11-4.09-4.24-8.39-8.35-13.47-11.35a27.66,27.66,0,0,0-9.06-3.73c-2.77-5.52-3.9-12.63,1.36-17.13,6.79-5.8,13.08.13,17.16,5.72.74,1,2.95.87,2.74-.75-1.16-9.11,9.06-17.44,17-19.67a16.58,16.58,0,0,1,11.93.95c4,2,5.35,4.94,7.38,8.61a1.23,1.23,0,0,0,2.27-.62c-.2-9.74-13.32-13.78-21.12-12.1-8.41,1.82-18.81,9.64-20.36,18.81-3.82-4.22-8.62-7.38-13.91-5.92-3.43-6.72-5.07-14.74.61-20.87a12.82,12.82,0,0,1,9.1-4.29c4.88,0,7.38,3.61,8.17,8,.22,1.22,1.68,1.25,2.46.65A26.13,26.13,0,0,1,463,177.77c2.54,1.56,4.42,3.74,6.69,5.56a18.79,18.79,0,0,0-3.92.79c-.73.24-.89,1.5,0,1.64,4,.66,8.07.41,12.08,1.17A48,48,0,0,1,490.26,191c8,3.91,13.48,9.72,18.88,16.58a1.08,1.08,0,0,0,1,.45,3.83,3.83,0,0,0,.28.29A30.21,30.21,0,0,0,500,212c-1.15.65-.15,2.27,1,1.74,13.59-6.22,29.13-2,41.18,5.73,10.72,6.87,20.76,17.67,22.31,30.82.61,5.12-1.2,11.22,2.49,15.52,3.46,4,9.44,4.78,13.4,8.31,11.94,10.65,9.93,28,3.52,41a18.6,18.6,0,0,0-9.56-2.13,30.72,30.72,0,0,0-1.8-27.5,31.27,31.27,0,0,0-11.77-11.09c-6.13-3.58-13.09-6.67-16-13.43a10,10,0,0,0,3.12-8,23.12,23.12,0,0,0-1.42-6.56c-.37-1.08-.61-2.08-1.83-2.39a1.38,1.38,0,0,0-1.72,1.31v.23a1.1,1.1,0,0,0,.69,1.08,14.58,14.58,0,0,1,1.11,4.11,10.59,10.59,0,0,1-.05,5.42,5.43,5.43,0,0,1-3.32,3.7c-.86.24-4.52-.44-4.56-2a.85.85,0,0,0,0-1.16l-.13-.15a.88.88,0,0,0-1.07-.14c-1.8,1.2,0,3.89,1.22,4.82a6.2,6.2,0,0,0,6.37.7c3.43,10.29,15.91,12.75,23,19.92A27.65,27.65,0,0,1,570.6,314a1.5,1.5,0,0,0,1.67,2.17c10.07-1.77,17.07,5.38,19.91,14.35,2.18,6.88,3.14,15.83-3,21a1.48,1.48,0,0,0,.65,2.46c7.61,1.53,10.82,8.67,12.64,15.48.89,3.36,2,7.09,2,10.58C604.52,384.08,602.34,389.51,597.4,388.85Z" transform="translate(-196.26 -168.15)"/></svg>